<?xml version="1.0" encoding="UTF-8"?>
<svg xmlns="http://www.w3.org/2000/svg" xmlns:xlink="http://www.w3.org/1999/xlink" width="256px" height="256px" viewBox="0 0 256 256" version="1.1">
<g id="surface1">
<path style=" stroke:none;fill-rule:nonzero;fill:rgb(87.843138%,87.843138%,87.843138%);fill-opacity:1;" d="M 48 16 C 30.328125 16 16 30.328125 16 48 L 16 64 L 240 64 L 240 48 C 240 30.328125 225.671875 16 208 16 Z M 192 32 L 208 32 L 208 48 L 192 48 Z M 16 80 L 16 208 C 16 225.671875 30.328125 240 48 240 L 208 240 C 225.671875 240 240 225.671875 240 208 L 240 80 Z M 167.601562 106.191406 L 190.222656 128.816406 L 111.023438 208 L 65.777344 162.753906 L 88.398438 140.128906 L 111.039062 162.753906 Z M 167.601562 106.191406 "/>
</g>
</svg>
