<?xml version="1.0" encoding="UTF-8"?>
<svg xmlns="http://www.w3.org/2000/svg" xmlns:xlink="http://www.w3.org/1999/xlink" width="256px" height="256px" viewBox="0 0 256 256" version="1.1">
<g id="surface1">
<path style=" stroke:none;fill-rule:nonzero;fill:rgb(87.843138%,87.843138%,87.843138%);fill-opacity:1;" d="M 32 16 C 23.164062 16 16 23.164062 16 32 L 16 224 C 16 232.835938 23.164062 240 32 240 L 224 240 C 232.835938 240 240 232.835938 240 224 L 240 32 C 240 23.164062 232.835938 16 224 16 Z M 48 64 C 48 55.164062 55.164062 48 64 48 L 192 48 C 200.835938 48 208 55.164062 208 64 L 208 192 C 208 200.835938 200.835938 208 192 208 L 64 208 C 55.164062 208 48 200.835938 48 192 Z M 132 64 C 140.835938 64 148 71.164062 148 80 L 148 108 L 176 108 C 184.835938 108 192 115.164062 192 124 L 192 132 C 192 140.835938 184.835938 148 176 148 L 148 148 L 148 176 C 148 184.835938 140.835938 192 132 192 L 124 192 C 115.164062 192 108 184.835938 108 176 L 108 148 L 80 148 C 71.164062 148 64 140.835938 64 132 L 64 124 C 64 115.164062 71.164062 108 80 108 L 108 108 L 108 80 C 108 71.164062 115.164062 64 124 64 Z M 132 64 "/>
</g>
</svg>
