<?xml version="1.0" encoding="UTF-8"?>
<svg xmlns="http://www.w3.org/2000/svg" xmlns:xlink="http://www.w3.org/1999/xlink" width="256px" height="256px" viewBox="0 0 256 256" version="1.1">
<g id="surface1">
<path style=" stroke:none;fill-rule:nonzero;fill:rgb(87.843138%,87.843138%,87.843138%);fill-opacity:1;" d="M 80 16 L 80 32 L 16 32 L 16 64 L 240 64 L 240 32 L 176 32 L 176 16 Z M 32 80 L 32 208 C 32 225.671875 46.328125 240 64 240 L 192 240 C 209.671875 240 224 225.671875 224 208 L 224 80 Z M 48 112 L 80 112 L 80 208 L 48 208 Z M 112 112 L 144 112 L 144 208 L 112 208 Z M 176 112 L 208 112 L 208 208 L 176 208 Z M 176 112 "/>
</g>
</svg>
