<?xml version="1.0" encoding="UTF-8"?>
<svg xmlns="http://www.w3.org/2000/svg" xmlns:xlink="http://www.w3.org/1999/xlink" width="256px" height="256px" viewBox="0 0 256 256" version="1.1">
<g id="surface1">
<path style=" stroke:none;fill-rule:nonzero;fill:rgb(87.843138%,87.843138%,87.843138%);fill-opacity:1;" d="M 162.6875 140.0625 C 185.335938 105.800781 178.359375 59.957031 146.546875 33.984375 C 114.734375 8.007812 68.421875 10.339844 39.382812 39.382812 C 10.339844 68.421875 8.007812 114.734375 33.984375 146.546875 C 59.957031 178.359375 105.800781 185.335938 140.0625 162.6875 L 209.121094 231.742188 L 231.742188 209.121094 Z M 96 48 C 122.507812 48 144 69.492188 144 96 C 144 122.507812 122.507812 144 96 144 C 69.492188 144 48 122.507812 48 96 C 48 69.492188 69.492188 48 96 48 Z M 96 48 "/>
</g>
</svg>
